# xmcd
#
# Track frame offsets:
#	150
#	11911
#	39641
#	53204
#	65802
#	80542
#	95740
#	111503
#	128913
#	142489
#	159703
#	176975
#	203758
#
# Disc length: 2916 seconds
# Revision: 1
# Processed by: cddbd v1.5.2PL0 Copyright (c) Steve Scherf et al.
# Submitted via: dBpowerAMP V12.0
#
DISCID=d00b620d
DTITLE=Bloosblasters - Sidd Ente Ena
DYEAR=2006
DGENRE=Blues
TTITLE0=I Vår Familj
TTITLE1=Kvinan Som Jag Älskar
TTITLE2=Så E de Beveänt Med Maj!
TTITLE3=Häng Me Maj Ud
TTITLE4=Glöm Maj Aldrig
TTITLE5=Hur Kan en Liden På Som Han?
TTITLE6=Jag Har Tur
TTITLE7=Samma Gamla Visa
TTITLE8=Det Bränner Bra I Lomman
TTITLE9=Som Vannet Po en Gås
TTITLE10=Ditt Gnäll
TTITLE11=Jag E Ingen Hönsatjuv
TTITLE12=Framfusig Tigerblues
EXTD=
EXTT0=
EXTT1=
EXTT2=
EXTT3=
EXTT4=
EXTT5=
EXTT6=
EXTT7=
EXTT8=
EXTT9=
EXTT10=
EXTT11=
EXTT12=
PLAYORDER=
